<?xml version="1.0" encoding="utf-8"?>
<!DOCTYPE svg PUBLIC "-//W3C//DTD SVG 1.0//EN" "http://www.w3.org/TR/2001/REC-SVG-20010904/DTD/svg10.dtd">
<svg version="1.0" xmlns="http://www.w3.org/2000/svg" width="1024px" height="1024px" viewBox="0 0 1024 1024" preserveAspectRatio="xMidYMid meet">
 <g fill="#02c9f0">
  <path d="M569.45 691.65 c-0.05 -0.50 -0.15 -5.05 -0.20 -10.05 -0.10 -5.90 -0.35 -9.40 -0.70 -9.75 -1.30 -1.30 -1.05 -1.55 12.60 -11 8.25 -5.70 28.45 -19.35 31.20 -21.10 1.35 -0.80 3.30 -2.15 4.35 -3 1.05 -0.80 4.90 -3.40 8.55 -5.75 3.60 -2.35 7.25 -4.70 8.05 -5.20 0.80 -0.55 10.45 -6.95 21.45 -14.25 11 -7.25 21.65 -14.45 23.70 -15.95 l3.70 -2.70 1.65 0.75 c1.80 0.90 16.10 9.10 21.10 12.10 3.65 2.20 3.70 2.10 -1.75 5.35 -1.95 1.20 -5.80 3.50 -8.50 5.10 -2.70 1.65 -5.25 3.25 -5.65 3.60 -0.40 0.35 -2.65 1.60 -5 2.80 -2.35 1.20 -5.50 3 -7 4.05 -1.50 1 -2.90 1.85 -3.10 1.85 -0.15 0 -2.20 1.15 -4.50 2.60 -2.30 1.40 -5.70 3.50 -7.65 4.65 -1.90 1.15 -5 3.05 -6.85 4.20 -1.85 1.10 -3.60 2.05 -3.90 2.05 -0.25 0 -0.50 0.25 -0.50 0.50 0 0.30 -0.60 0.75 -1.30 1 -0.70 0.30 -2.25 1.15 -3.40 1.90 -1.10 0.80 -4.40 2.85 -7.30 4.60 -2.90 1.75 -7.60 4.60 -10.50 6.40 -2.90 1.80 -9.50 5.85 -14.75 9 -7.95 4.80 -16.45 10 -19.75 12.10 -0.40 0.25 -5.65 3.40 -11.60 7 -6.30 3.75 -10.90 6.85 -10.90 7.25 0 1.05 -1.50 0.95 -1.55 -0.10z"/>
  <path d="M421.25 668.20 c-3.55 -2.10 -9.95 -5.90 -14.10 -8.40 -4.20 -2.50 -8.90 -5.30 -10.45 -6.20 -1.60 -0.90 -4.35 -2.60 -6.15 -3.80 -1.80 -1.20 -4.30 -2.70 -5.55 -3.40 -2.40 -1.30 -6.90 -4.05 -7.75 -4.80 -0.30 -0.25 -2.55 -1.50 -5 -2.85 -2.50 -1.30 -5.60 -3.10 -7 -4 -1.35 -0.90 -4.05 -2.50 -6 -3.55 -1.90 -1.05 -5.75 -3.35 -8.50 -5.10 -8.05 -5.20 -10.50 -6.75 -13.20 -8.35 -1.45 -0.80 -4.45 -2.70 -6.70 -4.15 -2.25 -1.45 -5.50 -3.35 -7.20 -4.25 -1.75 -0.85 -3.15 -1.80 -3.15 -2.10 0 -0.25 1.65 -1.45 3.65 -2.65 1.95 -1.15 5.65 -3.40 8.10 -4.90 8.60 -5.35 12.70 -7.70 13.40 -7.70 0.35 0 1.45 0.55 2.40 1.25 1.75 1.35 16.55 10.35 19.20 11.70 0.85 0.40 1.75 0.95 2 1.15 0.75 0.65 5.05 3.40 9.25 5.90 3.65 2.15 8.25 5.10 9.25 5.90 0.30 0.20 1.75 1.10 3.25 1.90 3.85 2.15 9.20 5.50 12.75 7.95 1.65 1.15 4.45 2.90 6.25 3.95 3.75 2.15 4.90 2.85 12.20 7.30 3.15 1.95 5.40 3.65 5.55 4.25 0.15 0.55 0.20 7.25 0.15 14.90 l-0.15 13.85 -6.50 -3.80z"/>
  <path d="M729.15 464.90 c-1.85 -1.15 -4.05 -2.55 -4.90 -3.10 -0.80 -0.60 -1.85 -1.30 -2.30 -1.55 -0.45 -0.30 -2.05 -1.30 -3.50 -2.30 -1.50 -0.95 -4.25 -2.75 -6.20 -3.95 -1.90 -1.20 -5 -3.15 -6.85 -4.35 -1.80 -1.15 -3.45 -2.15 -3.65 -2.15 -0.40 0 -8.85 -5.05 -9.25 -5.55 -0.15 -0.15 -0.60 -0.45 -1 -0.60 -0.40 -0.20 -1.55 -0.85 -2.50 -1.50 -1 -0.60 -3.65 -2.20 -5.95 -3.60 -2.30 -1.35 -4.75 -2.90 -5.45 -3.35 -0.75 -0.50 -1.70 -1.05 -2.10 -1.25 -0.45 -0.25 -3.20 -1.85 -6.15 -3.65 -7.65 -4.60 -8.95 -5.35 -10.20 -6.05 -0.65 -0.35 -1.15 -0.80 -1.15 -1.05 0 -0.20 -0.25 -0.40 -0.60 -0.40 -0.30 0 -2.20 -0.95 -4.10 -2.10 -6.20 -3.65 -13.05 -7.85 -13.65 -8.40 -0.35 -0.25 -0.75 -0.50 -0.90 -0.50 -0.15 0 -2.15 -1.20 -4.40 -2.70 -2.25 -1.45 -5.35 -3.40 -6.85 -4.30 -3.85 -2.25 -17.75 -10.95 -26.85 -16.80 l-2.65 -1.70 0 -15.75 c0 -8.65 0.15 -15.75 0.35 -15.75 0.15 0 2.60 1.45 5.35 3.15 2.80 1.75 5.95 3.70 7.05 4.35 4.70 2.75 23 14.25 23.25 14.60 0.15 0.20 1.50 0.95 3 1.65 1.50 0.70 4.10 2.20 5.75 3.40 1.65 1.15 6 3.95 9.75 6.20 7.45 4.55 14.20 8.65 19.95 12.25 2.10 1.30 4.80 2.95 6.05 3.65 1.25 0.70 4.40 2.60 7 4.20 2.60 1.65 5.05 3 5.45 3 0.40 0.05 0.55 0.20 0.40 0.40 -0.20 0.15 2.30 1.80 5.55 3.65 3.20 1.85 7.30 4.30 9.10 5.40 1.80 1.15 4.35 2.70 5.65 3.45 1.35 0.80 4.05 2.45 6 3.70 2 1.30 6 3.75 8.95 5.50 2.95 1.75 6.80 4.05 8.50 5.10 1.75 1.05 4.55 2.55 6.30 3.40 1.70 0.85 3.10 1.75 3.10 1.95 0 0.25 1.50 1.25 3.40 2.25 1.85 1 5.30 3.05 7.65 4.55 2.35 1.50 4.55 2.70 4.90 2.70 1.15 0 0.50 1 -1.30 1.90 -1.05 0.55 -5.25 2.85 -9.40 5.10 -7.60 4.20 -14.90 8.05 -16.35 8.65 -0.50 0.15 -2.20 -0.55 -4.25 -1.75z"/>
  <path d="M291 465.15 c-1.50 -0.70 -2.85 -1.40 -3 -1.60 -0.25 -0.40 -8.55 -4.90 -17.95 -9.80 -2.80 -1.45 -4.80 -2.80 -4.80 -3.25 0 -0.40 1 -1.25 2.25 -1.95 1.25 -0.65 4.45 -2.60 7.10 -4.35 2.65 -1.75 5 -3.20 5.25 -3.25 0.20 0 3 -1.55 6.15 -3.45 3.15 -1.90 7.45 -4.40 9.50 -5.55 2.05 -1.15 6.10 -3.60 9 -5.45 2.90 -1.80 6.95 -4.20 9 -5.35 2.05 -1.15 5.25 -3.05 7.05 -4.25 1.85 -1.15 5.25 -3.20 7.50 -4.55 4.85 -2.75 12.10 -7.20 15.70 -9.60 1.40 -0.90 3.50 -2.20 4.75 -2.85 1.25 -0.65 3.95 -2.30 6 -3.70 2.05 -1.40 5.55 -3.50 7.75 -4.70 2.20 -1.15 4.10 -2.30 4.25 -2.50 0.30 -0.45 4.10 -2.65 7 -4.15 1.25 -0.60 3.15 -1.65 4.25 -2.35 1.10 -0.70 2.60 -1.60 3.30 -2 6.40 -3.75 11.65 -6.90 13.80 -8.30 1.45 -0.95 2.85 -1.70 3.15 -1.70 0.25 0 0.50 -0.20 0.50 -0.45 0 -0.25 0.70 -0.70 1.55 -1.05 0.85 -0.35 1.80 -0.90 2.10 -1.20 0.35 -0.30 1.90 -1.20 3.50 -2.05 1.55 -0.80 2.85 -1.65 2.85 -1.80 0 -0.20 0.70 -0.60 1.50 -0.95 0.85 -0.35 1.50 -0.80 1.50 -1 0 -0.25 0.60 -0.60 1.40 -0.90 0.75 -0.25 3.10 -1.55 5.20 -2.90 7.40 -4.70 8.45 -5.30 8.75 -5 0.15 0.15 0.25 7.15 0.20 15.60 -0.10 14.85 -0.40 17.70 -1.75 17.70 -0.25 0 -1.95 0.85 -3.75 1.95 -1.80 1.05 -7.25 4.20 -12.05 7.05 -10.15 5.95 -15.20 9.10 -15.40 9.60 -0.10 0.25 -0.50 0.40 -0.90 0.40 -0.40 0 -0.70 0.20 -0.70 0.45 0 0.25 -0.50 0.55 -1.10 0.75 -0.65 0.15 -2.40 1.10 -3.90 2.10 -1.50 1 -5.35 3.40 -8.50 5.35 -3.15 1.90 -6.85 4.20 -8.25 5.10 -1.35 0.85 -7 4.25 -12.50 7.50 -16.85 10 -25.55 15.25 -29.20 17.65 -1.55 1.05 -3.90 2.45 -5.30 3.20 -1.35 0.70 -5 2.95 -8.10 5 -3.05 2 -7.45 4.80 -9.70 6.15 -2.25 1.40 -5.60 3.45 -7.40 4.60 -1.80 1.20 -3.65 2.35 -4.05 2.55 -0.50 0.30 -1.70 0.05 -3.50 -0.75z"/>
 </g>
 <g fill="#ec7ddd">
  <path d="M453.50 673.05 l0 -43.90 -5.35 -3.25 c-3 -1.80 -8.30 -5.05 -11.90 -7.25 -3.55 -2.20 -9.30 -5.60 -12.75 -7.65 -3.45 -2 -7.05 -4.15 -8 -4.75 -4.80 -3.10 -10.15 -6.35 -14 -8.50 -2.35 -1.35 -4.35 -2.60 -4.50 -2.75 -0.15 -0.20 -0.85 -0.65 -1.65 -1.05 -0.75 -0.40 -7.35 -4.30 -14.60 -8.70 -7.30 -4.40 -13.90 -8.35 -14.65 -8.75 -0.75 -0.40 -2.55 -1.45 -3.95 -2.35 -1.45 -0.90 -2.75 -1.65 -2.90 -1.65 -0.15 0 -1.20 -0.60 -2.40 -1.35 -2.90 -1.90 -4.70 -2.95 -7.60 -4.45 -1.35 -0.70 -3.20 -1.85 -4.10 -2.50 -0.85 -0.65 -1.80 -1.20 -2.10 -1.20 -0.25 0 -3 1.70 -6.05 3.75 -3.05 2.05 -5.65 3.75 -5.80 3.75 -0.30 0 -11.85 7.20 -15.95 10 -1.90 1.30 -5.75 3.80 -8.55 5.55 -2.75 1.75 -5.95 3.80 -7 4.60 -1.80 1.20 -2.45 1.35 -6.30 1.40 -3.60 0.05 -4.70 -0.15 -6.35 -1.05 -2.20 -1.25 -4.15 -3.55 -3.65 -4.35 0.20 -0.25 1.95 -1.50 3.85 -2.70 1.95 -1.20 4.50 -2.85 5.75 -3.75 1.25 -0.85 2.65 -1.70 3.15 -1.85 0.50 -0.20 6.10 -3.80 12.55 -8.10 6.40 -4.25 11.85 -7.75 12.15 -7.75 0.30 0 0.80 -0.35 1.20 -0.80 0.35 -0.40 1.70 -1.30 3 -2 1.30 -0.65 2.50 -1.40 2.65 -1.65 0.50 -0.80 -0.15 -1.80 -1.60 -2.40 -1.55 -0.70 -5.25 -2.85 -7.20 -4.20 -0.70 -0.55 -1.45 -0.95 -1.65 -0.95 -0.20 0 -0.95 -0.40 -1.65 -0.95 -0.75 -0.50 -2.45 -1.55 -3.85 -2.25 -1.35 -0.75 -3.40 -1.90 -4.50 -2.60 -1.10 -0.70 -2.60 -1.50 -3.35 -1.85 -0.80 -0.30 -1.40 -0.75 -1.40 -0.95 0 -0.20 -0.25 -0.40 -0.55 -0.40 -0.30 0 -1.45 -0.65 -2.60 -1.45 -2.45 -1.65 -5.25 -3.30 -8.10 -4.70 -1.10 -0.55 -2.65 -1.45 -3.50 -2.05 -0.80 -0.60 -1.95 -1.30 -2.50 -1.65 -1.95 -1.15 -6.50 -3.85 -7.50 -4.45 -0.55 -0.30 -2.85 -1.70 -5.05 -3.10 -2.25 -1.40 -4.85 -2.90 -5.75 -3.35 -2.85 -1.30 -7.10 -3.95 -7.30 -4.50 -0.15 -0.45 3.10 -2.60 9.75 -6.50 0.45 -0.25 1.85 -1.20 3.10 -2.05 1.25 -0.85 3.60 -2.30 5.25 -3.15 3.65 -1.90 8.90 -5.10 9.25 -5.55 0.15 -0.20 1.05 -0.75 2 -1.25 0.95 -0.50 4.25 -2.50 7.25 -4.50 7.30 -4.75 12.65 -8.10 17.50 -10.95 4.65 -2.75 4.05 -2.40 10.50 -6.35 2.75 -1.70 6.45 -3.95 8.25 -4.95 6.10 -3.45 21.25 -12.70 21.40 -13.10 0.10 -0.25 0.45 -0.40 0.80 -0.40 0.30 0 2.20 -1.10 4.20 -2.50 2 -1.40 3.75 -2.50 3.90 -2.50 0.20 0 1.35 -0.75 2.65 -1.70 1.25 -0.90 2.55 -1.75 2.80 -1.85 0.30 -0.10 1.80 -1 3.40 -1.95 3.80 -2.30 4.10 -2.50 7.35 -4.50 3.05 -1.95 3.10 -1.95 8.65 -5.35 2.15 -1.30 6.60 -4.10 9.90 -6.15 3.35 -2.05 6.40 -4 6.90 -4.25 0.45 -0.30 3.05 -1.75 5.80 -3.20 2.75 -1.50 5.10 -2.90 5.25 -3.05 0.25 -0.35 11.95 -6.50 12.35 -6.50 0.05 0 0.15 6.65 0.15 14.75 l0 14.70 -1.50 0.80 c-0.80 0.45 -1.50 1 -1.50 1.25 0 0.30 -0.25 0.50 -0.60 0.50 -0.70 0 -6.20 3.15 -11.65 6.75 -2.20 1.45 -5.35 3.40 -7 4.35 -9.15 5.35 -21.90 13.45 -22.15 14.05 -0.10 0.20 -0.40 0.35 -0.65 0.35 -0.30 0 -1.85 0.85 -3.45 1.90 -1.65 1 -3.80 2.35 -4.85 3 -1.05 0.60 -4.80 2.90 -8.40 5.05 -19.85 11.90 -28.60 17.30 -29.55 18.10 -0.55 0.55 -1.15 0.95 -1.35 0.95 -0.20 0 -1.20 0.50 -2.25 1.15 -1 0.65 -3.30 2.05 -5.10 3.10 -1.80 1.05 -3.35 2.10 -3.50 2.25 -0.15 0.20 -3 1.90 -6.40 3.75 -4.15 2.30 -6.10 3.65 -6 4.15 0.15 0.70 18.50 12.40 21.75 13.80 0.85 0.40 3.45 1.95 5.75 3.45 2.30 1.50 5.50 3.45 7.15 4.35 l3 1.60 5.85 -3.65 c8.95 -5.60 12 -7.55 14.70 -9.30 10.20 -6.60 12.90 -8.25 16.15 -10.20 2 -1.20 4.05 -2.40 4.50 -2.70 0.45 -0.25 2.30 -1.55 4.05 -2.80 1.80 -1.25 3.95 -2.70 4.75 -3.15 1.85 -1 2.20 -1.20 9 -5.60 3 -1.95 6.30 -3.95 7.25 -4.45 0.95 -0.50 1.85 -1.05 2 -1.20 0.55 -0.65 10.50 -7.10 11.70 -7.55 0.65 -0.25 2.55 -1.45 4.15 -2.70 1.60 -1.20 5.60 -3.85 8.90 -5.85 3.30 -1.95 6.85 -4.25 7.95 -5.10 l1.95 -1.55 -0.35 -25.50 c-0.15 -14.05 -0.30 -43.10 -0.35 -64.55 -0.05 -21.45 -0.20 -46.85 -0.40 -56.50 -0.20 -9.60 -0.30 -17.55 -0.25 -17.65 0.10 -0.20 2.80 1.40 3.20 1.90 0.15 0.20 4.85 3.40 10.50 7.15 5.65 3.75 11.50 7.70 13 8.80 1.50 1.10 4.20 2.95 6 4.05 1.80 1.15 4.15 2.75 5.25 3.55 1.10 0.80 2.90 1.95 4 2.55 1.10 0.55 2.90 1.75 4 2.65 1.10 0.90 5.05 3.70 8.75 6.20 3.70 2.55 9.10 6.25 12 8.30 2.90 2.05 6.10 4.20 7.10 4.85 4.35 2.75 19.40 13 19.70 13.45 0.15 0.25 0.55 0.45 0.90 0.45 0.55 0 0.65 -3.25 0.55 -16.85 -0.25 -41.15 -0.30 -52.30 -0.05 -52.50 0.35 -0.35 3.25 1.40 7.55 4.60 1.95 1.40 4.75 3.35 6.25 4.40 1.50 1 3.30 2.35 4 3 0.70 0.60 2.75 2.15 4.55 3.45 2.50 1.75 3.40 2.75 3.60 3.85 0.20 0.80 0.35 34.90 0.35 75.70 l0.10 74.25 1.05 1 c0.85 0.80 16.60 10.95 25.45 16.35 2.25 1.40 2.75 1.75 6.25 4.15 1.70 1.15 3.20 2.10 3.35 2.10 0.15 0 3.25 2 6.90 4.45 3.65 2.40 7.40 4.85 8.35 5.35 2.10 1.20 2.60 1.50 6.30 3.95 1.65 1.10 4.15 2.65 5.55 3.50 2.80 1.65 5.45 3.25 11.05 6.90 2 1.30 3.75 2.35 3.90 2.35 0.10 0 2.15 1.30 4.60 2.90 2.40 1.60 4.75 3.05 5.15 3.25 0.95 0.40 3.35 1.95 8.55 5.35 2.30 1.55 5.20 3.40 6.50 4.10 l2.25 1.35 4.35 -2.85 c2.35 -1.55 6.15 -3.95 8.35 -5.35 2.20 -1.35 5.40 -3.45 7.15 -4.60 1.70 -1.15 4.70 -3 6.60 -4.15 1.95 -1.10 4.40 -2.60 5.50 -3.25 1.10 -0.65 2.90 -1.65 3.95 -2.15 l1.95 -1 -1.20 -0.70 c-0.65 -0.40 -5.65 -3.40 -11.10 -6.70 -5.45 -3.25 -10.65 -6.40 -11.55 -6.95 -0.85 -0.55 -4.05 -2.50 -7.10 -4.30 -5.45 -3.35 -11.85 -7.30 -20.70 -12.85 -2.60 -1.65 -6.40 -3.95 -8.40 -5.15 -2 -1.20 -5.25 -3.20 -7.30 -4.45 -2 -1.25 -7.20 -4.45 -11.60 -7.15 -4.35 -2.70 -10.60 -6.50 -13.80 -8.50 -3.25 -2 -6.25 -3.90 -6.75 -4.20 -0.50 -0.35 -3.50 -2.25 -6.65 -4.20 -3.15 -1.95 -6.95 -4.35 -8.35 -5.30 l-2.65 -1.70 0 -8.35 c0 -4.60 -0.15 -11.35 -0.35 -14.95 -0.15 -3.65 -0.15 -6.65 0 -6.65 0.15 0 1.85 0.90 3.80 2 1.95 1.10 3.60 2 3.75 2 0.15 0 1.70 1 3.50 2.25 1.85 1.25 3.40 2.25 3.55 2.25 0.15 0 2.80 1.55 5.85 3.45 3.10 1.85 7.90 4.70 10.65 6.35 2.75 1.60 7.45 4.45 10.40 6.30 2.95 1.85 5.70 3.40 6.10 3.40 0.35 0 0.75 0.15 0.85 0.40 0.25 0.60 3.50 2.80 6.05 4.05 1.30 0.65 2.35 1.35 2.35 1.55 0 0.20 1.65 1.20 3.65 2.25 1.95 1.05 4.15 2.40 4.80 3.05 1.10 1.10 1.75 1.40 2.70 1.25 0.20 0 0.35 0.20 0.35 0.45 0 0.30 1.20 1.05 2.65 1.70 1.40 0.60 2.90 1.50 3.30 1.95 0.35 0.50 0.90 0.85 1.15 0.85 0.25 0 1.75 0.80 3.30 1.85 1.55 1 4.65 2.90 6.85 4.25 10.80 6.60 12.80 7.85 16.35 10.30 2.15 1.40 4 2.60 4.20 2.60 0.15 0 0.90 0.45 1.70 1 0.75 0.55 6.50 4.10 12.80 7.90 16.70 10.10 21.90 13.30 22.20 13.60 0.45 0.55 6.25 3.90 8.60 5 1.30 0.60 2.60 1.40 2.95 1.80 0.30 0.40 0.75 0.70 1 0.70 0.65 0 12.95 7.55 12.95 7.95 0 0.20 -0.95 0.90 -2.10 1.60 -6.75 3.80 -14.20 8.40 -15.40 9.45 -0.60 0.55 -1.35 1 -1.60 1 -0.25 0 -2.75 1.45 -5.55 3.30 -2.80 1.80 -6.80 4.20 -8.85 5.40 -2.05 1.15 -7.35 4.25 -11.75 6.90 -8.90 5.25 -9.70 5.70 -10.75 6.10 -0.40 0.15 -2.30 1.30 -4.25 2.55 -1.90 1.25 -4.60 2.90 -5.95 3.70 l-2.45 1.50 3.05 1.90 c1.70 1.05 5.15 3.25 7.70 4.90 2.55 1.60 6.45 4 8.65 5.25 6.05 3.50 11.80 7.10 13.80 8.65 1 0.75 2.70 1.85 3.80 2.50 1.10 0.60 3.25 1.95 4.85 3 1.55 1 3.05 1.85 3.35 1.85 0.30 0 0.45 0.35 0.35 0.80 -0.10 0.45 -1.50 1.35 -3.15 2.05 -1.65 0.70 -3.60 1.70 -4.35 2.20 -1.55 1.15 -4.05 1.25 -5.05 0.20 -0.40 -0.40 -2.20 -1.55 -3.95 -2.55 -1.70 -1.05 -4.40 -2.70 -5.95 -3.75 -1.55 -1.05 -3.90 -2.55 -5.25 -3.35 -1.35 -0.80 -5.50 -3.30 -9.20 -5.60 -12.20 -7.45 -20.60 -12.50 -20.80 -12.50 -0.30 0 -18.50 11.80 -28.55 18.55 -3.50 2.35 -7.30 4.80 -8.40 5.45 -1.80 1.05 -12.80 8.15 -27 17.40 -7 4.55 -29.45 19.40 -32.65 21.55 -1.45 1 -5.55 3.70 -9.10 6.05 -11.60 7.65 -25.55 17.15 -26.25 17.85 -0.40 0.35 -0.90 0.65 -1.15 0.65 -0.25 0 -0.75 0.35 -1.10 0.75 -0.30 0.40 -2 1.50 -3.65 2.50 -1.70 0.95 -3.65 2.20 -4.35 2.70 -1.90 1.40 -17.35 11.65 -19.15 12.70 -0.90 0.55 -2.05 1.35 -2.60 1.85 -0.55 0.45 -4.60 3.30 -9 6.20 -12.65 8.45 -23.70 16.10 -24.90 17.20 -0.60 0.55 -1.90 1.40 -2.85 1.90 -0.95 0.55 -2.55 1.55 -3.55 2.35 -1 0.75 -2.05 1.35 -2.35 1.35 -0.35 0 -0.60 0.15 -0.60 0.40 0 0.35 -2.35 1.95 -10.75 7.35 -2.45 1.60 -4.60 3.05 -4.75 3.25 -0.15 0.20 -1.80 1.30 -3.75 2.50 -1.90 1.20 -3.85 2.45 -4.30 2.85 -0.40 0.35 -0.95 0.65 -1.10 0.65 -0.20 0 -0.35 -19.75 -0.35 -43.95z m30.80 -9.15 c1.25 -0.90 3.95 -2.65 5.90 -3.90 3.60 -2.25 14.90 -9.55 23.50 -15.25 2.50 -1.70 6.70 -4.35 9.30 -5.95 5.65 -3.50 9 -5.60 11.95 -7.60 1.20 -0.80 2.55 -1.70 3 -1.95 4.60 -2.90 8 -5.35 8.25 -6 0.45 -1.20 0.30 -143.15 -0.15 -183.55 -0.30 -22.30 -0.65 -34.90 -0.95 -35.55 -0.30 -0.55 -2.85 -2.55 -5.70 -4.45 -2.85 -1.90 -5.25 -3.55 -5.40 -3.70 -0.15 -0.20 -2.40 -1.70 -5 -3.35 -5 -3.25 -7.65 -5.05 -8.65 -5.90 -0.70 -0.55 -6.05 -4.25 -7.35 -5 -0.45 -0.25 -3.45 -2.30 -6.70 -4.50 -3.25 -2.20 -8.45 -5.70 -11.50 -7.75 -3.10 -2.05 -8.05 -5.35 -10.95 -7.35 -2.95 -2 -5.40 -3.45 -5.40 -3.25 -0.10 0.65 0.15 99.35 0.25 101.85 0.10 1.40 0.30 27 0.45 57 0.20 30 0.45 65.85 0.60 79.75 0.15 13.90 0.25 34.85 0.25 46.65 0 20.85 0 21.35 0.95 21.35 0.55 0 2.05 -0.75 3.35 -1.60z m94.40 -63.05 c2.20 -1.50 5.35 -3.55 7 -4.65 1.60 -1.05 3.30 -2.15 3.75 -2.45 0.45 -0.25 3.40 -2.20 6.55 -4.30 3.15 -2.05 7 -4.55 8.50 -5.45 1.50 -0.95 5.25 -3.30 8.25 -5.25 3.05 -2 6.25 -4 7.15 -4.55 0.90 -0.50 3.15 -2 5 -3.25 7.30 -5 20 -13.35 23 -15.15 1.75 -1.05 3.05 -2 2.95 -2.10 -0.10 -0.10 -1.95 -1.30 -4.15 -2.60 -5.95 -3.65 -16.35 -10.30 -19.60 -12.50 -1.55 -1.05 -6.20 -4 -10.35 -6.60 -4.10 -2.55 -9.80 -6.15 -12.60 -7.95 -4.95 -3.20 -9.90 -6.35 -15.80 -10 -1.60 -1 -5.75 -3.65 -9.20 -5.90 -3.45 -2.30 -6.35 -4.15 -6.45 -4.15 -0.15 0 -0.15 3.30 0 7.40 0.10 4.05 0.40 26.40 0.60 49.75 0.20 27.45 0.50 42.35 0.85 42.35 0.25 0 2.30 -1.20 4.55 -2.65z m-125.85 -24.70 c-0.20 -11.80 -0.35 -32.60 -0.35 -46.25 0 -16.95 -0.15 -24.90 -0.50 -24.90 -0.30 0 -1.75 0.90 -3.20 2 -1.45 1.10 -2.85 2 -3.05 2 -0.25 0 -3.25 1.90 -6.70 4.20 -6.55 4.30 -12.65 8.15 -26 16.35 -4.30 2.60 -10.30 6.30 -13.35 8.25 -3.10 1.90 -6.60 4.05 -7.75 4.80 -1.20 0.70 -4.55 2.80 -7.40 4.60 -2.85 1.80 -5.35 3.30 -5.55 3.30 -0.20 0 -0.70 0.40 -1.20 0.90 -0.75 0.90 -0.75 0.95 0.45 1.50 0.70 0.35 1.55 0.85 1.90 1.10 0.85 0.75 9.75 6 10.75 6.35 0.45 0.20 2.30 1.25 4.10 2.45 1.80 1.15 5.75 3.50 8.75 5.20 5.50 3.15 6 3.50 10.25 6.35 1.25 0.85 3.15 2 4.25 2.55 1.10 0.55 2.45 1.40 3 1.80 0.55 0.45 3.35 2.20 6.25 3.85 2.90 1.70 7.15 4.25 9.50 5.70 2.35 1.45 5.60 3.35 7.25 4.25 1.65 0.95 3.70 2.15 4.50 2.70 2.15 1.50 3.45 2.25 3.95 2.25 0.30 0.05 0.35 -8.50 0.15 -21.30z"/>
  <path d="M562.15 706.10 c-3.65 -2.40 -10.65 -6.80 -15.60 -9.85 -4.95 -3 -9 -5.75 -9.05 -6 0 -0.30 1.50 -1.40 3.40 -2.50 1.85 -1.05 4.35 -2.65 5.60 -3.55 1.25 -0.85 5.45 -3.60 9.35 -6.10 l7.05 -4.50 0.30 3.80 c0.15 2.15 0.50 5.35 0.80 7.25 0.25 1.85 0.50 4.05 0.50 4.95 0 0.85 0.25 2.40 0.60 3.50 0.45 1.50 0.45 2.50 -0.05 4.40 -0.75 2.95 0.05 8 1.25 8 0.40 0 0.70 0.35 0.70 0.75 0 0.40 0.45 0.75 1 0.75 0.80 0 1 0.35 1 1.75 0 0.95 -0.05 1.75 -0.10 1.75 -0.10 -0.05 -3.10 -2 -6.75 -4.40z"/>
 </g>
 <g fill="#e68be8">
  <path d="M454.40 715.60 c-0.50 -0.10 -0.90 -0.40 -0.90 -0.65 0 -0.85 1.55 -1.10 2.35 -0.35 0.60 0.60 0.60 0.80 0.05 1 -0.35 0.10 -1.05 0.15 -1.50 0z"/>
  <path d="M567.70 709.30 c-0.15 -0.40 -0.60 -0.60 -1 -0.45 -0.50 0.20 -0.85 -0.10 -1.05 -0.80 -0.15 -0.55 -0.45 -0.95 -0.65 -0.80 -0.70 0.40 -1.05 -0.55 -1.80 -4.75 -0.55 -3.35 -0.55 -4.20 0 -5.55 0.45 -1.10 0.55 -2.05 0.25 -2.90 -0.25 -0.70 -0.55 -2.40 -0.65 -3.80 -0.60 -7.65 -1.35 -14.40 -1.55 -14.75 -0.30 -0.45 2.40 -2.65 3.90 -3.20 0.85 -0.25 0.90 -0.10 0.65 2.05 -0.95 8.20 -0.95 9.55 0.20 11.85 0.60 1.25 1.45 2.40 1.95 2.55 0.50 0.15 1.40 0.80 2 1.45 1.05 1.10 1.05 1.50 0.95 10.35 l-0.15 9.20 -1.40 0.15 c-0.85 0.10 -1.45 -0.10 -1.65 -0.60z"/>
  <path d="M595.80 620.75 c-0.30 -0.90 1.55 -2.75 2.75 -2.75 1.65 0 1.45 0.85 -0.50 2.15 -1.60 1.05 -2 1.15 -2.25 0.60z"/>
  <path d="M598.50 414.50 c0 -0.65 0.55 -0.65 1.50 0 0.60 0.40 0.55 0.50 -0.35 0.50 -0.65 0 -1.15 -0.20 -1.15 -0.50z"/>
 </g>
 <g fill="#da91ef">
  <path d="M568.60 710.10 c-0.80 -0.75 -1.75 -1.30 -2.10 -1.20 -0.40 0.15 -0.50 0 -0.25 -0.40 0.20 -0.35 0.85 -0.45 1.55 -0.30 0.85 0.25 1.30 0.10 1.50 -0.45 0.20 -0.40 0.60 -0.75 1 -0.75 0.50 0 0.70 0.65 0.70 2.25 0 1.25 -0.20 2.25 -0.45 2.25 -0.25 0 -1.10 -0.65 -1.95 -1.40z"/>
  <path d="M568.50 691.75 c-0.65 -0.65 -1.55 -1.35 -2.05 -1.50 -0.50 -0.15 -1.40 -1.30 -2 -2.60 -1 -2.05 -1.05 -2.70 -0.75 -7.40 0.30 -4.50 0.20 -5.25 -0.50 -5.65 -0.65 -0.35 -0.25 -0.85 2.25 -2.55 l3.05 -2.05 0 7.95 c0 8.55 0.15 9.55 1.45 9.55 0.65 0 0.85 0.60 0.95 2.75 0.20 3.15 -0.45 3.55 -2.40 1.50z"/>
 </g>
 <g fill="#d499f4">
  <path d="M568.90 690.65 c-1.80 -2.10 -2.05 -3.35 -2.05 -10.15 0.05 -3.70 -0.15 -7.10 -0.40 -7.55 -0.30 -0.60 0 -1.20 1.10 -2.25 l1.55 -1.45 0.90 1.10 c0.80 1 0.90 2.20 0.90 11.15 0 10.35 -0.20 11.20 -2 9.15z"/>
 </g>
</svg>